<?xml version="1.0" encoding="UTF-8"?><svg id="Capa_1" xmlns="http://www.w3.org/2000/svg" viewBox="0 0 150 150"><defs><style>.cls-1{fill:#f07f17;}.cls-1,.cls-2,.cls-3,.cls-4,.cls-5{stroke-width:0px;}.cls-2{fill:#0faba0;}.cls-3{fill:#f39208;}.cls-4{fill:#fff;}.cls-5{fill:#eeeded;}</style></defs><polygon class="cls-2" points="32.3872039 144.9477559 30.7573659 141.1219259 29.4183398 141.1219259 31.7291179 146.4780095 32.953358 146.4780095 35.2717678 141.1219259 34.0398754 141.1219259 32.3872039 144.9477559"/><rect class="cls-2" x="35.7080579" y="142.3614501" width="1.1936511" height="4.1165595"/><path class="cls-2" d="m36.3048834,140.4562906c-.4437156,0-.7421799.2907088-.7421799.6656353,0,.3749059.2984643.6657384.7421799.6657384.4438187,0,.7422006-.2908326.7422006-.688675,0-.3672741-.2983818-.6426987-.7422006-.6426987Z"/><path class="cls-2" d="m41.1255052,142.8894865c-.3137485-.3979662-.7880531-.5891938-1.361942-.5891938-1.140043,0-2.05829.7880531-2.05829,1.9893772,0,1.2013035.9182471,1.9893565,2.05829,1.9893565.5355651,0,.9870362-.168291,1.3006816-.5126285v.1760465c0,.7421799-.3672741,1.1247382-1.2088527,1.1247382-.5280158,0-1.1018016-.1836783-1.4537915-.4667553l-.4744077.856966c.4820601.3749265,1.2395242.5662572,2.0199455.5662572,1.4843805,0,2.3107781-.7039592,2.3107781-2.2343159v-3.4278845h-1.1324112v.5280364Zm-1.1247382,2.4101562c-.6274145,0-1.086538-.4055155-1.086538-1.0099728,0-.6044779.4591235-1.0099728,1.086538-1.0099728.6273939,0,1.078865.4054948,1.078865,1.0099728,0,.6044573-.4514711,1.0099728-1.078865,1.0099728Z"/><rect class="cls-2" x="43.3675767" y="142.3614501" width="1.1936717" height="4.1165595"/><path class="cls-2" d="m43.9644022,140.4562906c-.4437156,0-.7421799.2907088-.7421799.6656353,0,.3749059.2984643.6657384.7421799.6657384.4438394,0,.7422006-.2908326.7422006-.688675,0-.3672741-.2983612-.6426987-.7422006-.6426987Z"/><rect class="cls-2" x="45.6708055" y="140.8006281" width="1.1936717" height="5.6773815"/><path class="cls-2" d="m49.6344613,142.3002927c-.6579829,0-1.3237213.1759434-1.7750893.4973443l.4284314.8340294c.2984643-.2372039.7498323-.3825583,1.1860193-.3825583.6426987,0,.9487123.2983612.9487123.8109897h-.9487123c-1.2549322,0-1.7675606.5049967-1.7675606,1.2318924,0,.7116116.5738889,1.2471766,1.5379885,1.2471766.6044779,0,1.0329093-.19888,1.254829-.5737858v.5126285h1.1171064v-2.3489988c0-1.2471766-.7268957-1.828718-1.9817248-1.828718Zm.7880737,2.8769115c-.1377226.3749265-.481957.5586048-.8799025.5586048-.4207996,0-.6732877-.1989625-.6732877-.4973443,0-.2754246.1759434-.4820395.7345481-.4820395h.8186421v.420779Z"/><path class="cls-2" d="m55.7406042,142.797637c-.2983818-.3366851-.7269164-.4973443-1.2318924-.4973443-1.1630827,0-2.0582694.8263976-2.0582694,2.1194268,0,1.2931529.8951867,2.1194474,2.0582694,2.1194474.5508492,0,.9870362-.1759434,1.2853974-.5355651v.4744077h1.1401461v-5.6773815h-1.1936511v1.9970089Zm-1.0252776,2.7621255c-.5968255,0-1.0559284-.4284314-1.0559284-1.140043,0-.7115909.4591029-1.1400224,1.0559284-1.1400224.5890906,0,1.0481935.4284314,1.0481935,1.1400224,0,.7116116-.4591029,1.140043-1.0481935,1.140043Z"/><path class="cls-2" d="m59.6966076,142.3002927c-.6579829,0-1.3237419.1759434-1.7751099.4973443l.4284314.8340294c.298485-.2372039.749853-.3825583,1.1860193-.3825583.6426987,0,.9487123.2983612.9487123.8109897h-.9487123c-1.2549115,0-1.7675606.5049967-1.7675606,1.2318924,0,.7116116.5739096,1.2471766,1.5380092,1.2471766.6044779,0,1.0329093-.19888,1.254829-.5737858v.5126285h1.1171064v-2.3489988c0-1.2471766-.7269164-1.828718-1.9817248-1.828718Zm.7880531,2.8769115c-.137702.3749265-.4819364.5586048-.8799025.5586048-.420779,0-.6732877-.1989625-.6732877-.4973443,0-.2754246.1759434-.4820395.7345481-.4820395h.8186421v.420779Z"/><polygon class="cls-2" points="70.0110357 141.1219259 68.0369427 144.4503085 66.032302 141.1219259 65.0069213 141.1219259 65.0069213 146.4780095 66.170004 146.4780095 66.170004 143.3332021 67.7385815 145.9117524 68.2970831 145.9117524 69.8733131 143.2643923 69.8809655 146.4780095 71.043945 146.4780095 71.0286402 141.1219259 70.0110357 141.1219259"/><rect class="cls-2" x="72.2301706" y="142.3614501" width="1.1936511" height="4.1165595"/><path class="cls-2" d="m72.8269961,140.4562906c-.4437156,0-.7421799.2907088-.7421799.6656353,0,.3749059.2984643.6657384.7421799.6657384.4438187,0,.7421799-.2908326.7421799-.688675,0-.3672741-.2983612-.6426987-.7421799-.6426987Z"/><path class="cls-2" d="m77.0355082,142.3002927c-.5586254,0-1.0406649.1912276-1.3619627.5432175v-.4820601h-1.1401461v4.1165595h1.1936511v-2.0353535c0-.7574641.4132504-1.109454.9870362-1.109454.5280364,0,.83405.3061167.83405.971752v2.1730555h1.1936511v-2.3566512c0-1.2549115-.7345481-1.8210656-1.7062795-1.8210656Z"/><path class="cls-2" d="m81.7566281,142.3002927c-1.2548084,0-2.195992.8875549-2.195992,2.1194268,0,1.2242607.9258788,2.1194474,2.3489988,2.1194474.7422006,0,1.3160895-.2294483,1.6986478-.6656353l-.6350463-.688675c-.283077.267896-.5968255.3979456-1.0330125.3979456-.6274145,0-1.0634983-.3137485-1.1782637-.826377h3.1141154c.0076318-.0995019.0229366-.2295515.0229366-.3214009,0-1.3237419-.9334281-2.1347316-2.142384-2.1347316Zm-1.0099728,1.7598051c.0840939-.5279127.4744077-.856966,1.0176252-.856966.5355651,0,.9258788.3366851,1.0099728.856966h-2.0275979Z"/><path class="cls-2" d="m87.6943769,142.797637c-.2983818-.3366851-.7269164-.4973443-1.2318924-.4973443-1.1630827,0-2.05829.8263976-2.05829,2.1194268,0,1.2931529.8952074,2.1194474,2.05829,2.1194474.5508492,0,.9870362-.1759434,1.2853974-.5355651v.4744077h1.1401461v-5.6773815h-1.1936511v1.9970089Zm-1.0252776,2.7621255c-.5968255,0-1.0559491-.4284314-1.0559491-1.140043,0-.7115909.4591235-1.1400224,1.0559491-1.1400224.5890906,0,1.0481935.4284314,1.0481935,1.1400224,0,.7116116-.4591029,1.140043-1.0481935,1.140043Z"/><path class="cls-2" d="m92.9435332,144.3968035c0,.7574641-.3979662,1.109454-.9488154,1.109454-.5279333,0-.8340294-.3060136-.8340294-.9946886v-2.1501189h-1.1936717v2.3260623c0,1.2702163.7268957,1.8516546,1.7599082,1.8516546.5049967,0,.9641202-.1912276,1.2777656-.5508492v.4896919h1.1323906v-4.1165595h-1.1935479v2.0353535Z"/><path class="cls-2" d="m97.2285899,143.2796971c.3749059,0,.703856.1759228.9257757.5661334l.9258788-.4973443c-.2984643-.673267-.9794044-1.0481935-1.8440021-1.0481935-1.3390261,0-2.2954939.8799025-2.2954939,2.1194268,0,1.2395448.9564678,2.1194474,2.2954939,2.1194474.8645977,0,1.5455378-.3825583,1.8440021-1.0405617l-.9258788-.5049761c-.2219197.3978424-.5508699.5661334-.9257757.5661334-.6044779,0-1.0788856-.420779-1.0788856-1.140043,0-.7192433.4744077-1.1400224,1.0788856-1.1400224Z"/><path class="cls-2" d="m101.4293464,142.3002927c-.6580035,0-1.3237419.1759434-1.7751099.4973443l.4284314.8340294c.298485-.2372039.7498323-.3825583,1.1860193-.3825583.6426987,0,.9487123.2983612.9487123.8109897h-.9487123c-1.2549322,0-1.7675606.5049967-1.7675606,1.2318924,0,.7116116.5739096,1.2471766,1.5380092,1.2471766.6044779,0,1.0329093-.19888,1.254829-.5737858v.5126285h1.1171064v-2.3489988c0-1.2471766-.7269164-1.828718-1.9817248-1.828718Zm.7880531,2.8769115c-.1377226.3749265-.4819364.5586048-.8799025.5586048-.420779,0-.6732877-.1989625-.6732877-.4973443,0-.2754246.1759434-.4820395.7345481-.4820395h.8186421v.420779Z"/><path class="cls-2" d="m106.5177404,143.2796971c.3749265,0,.7038767.1759228.9257757.5661334l.9258788-.4973443c-.2984643-.673267-.9793838-1.0481935-1.8440021-1.0481935-1.3390261,0-2.2954733.8799025-2.2954733,2.1194268,0,1.2395448.9564472,2.1194474,2.2954733,2.1194474.8646184,0,1.5455378-.3825583,1.8440021-1.0405617l-.9258788-.5049761c-.2218991.3978424-.5508492.5661334-.9257757.5661334-.6044779,0-1.078865-.420779-1.078865-1.140043,0-.7192433.4743871-1.1400224,1.078865-1.1400224Z"/><path class="cls-2" d="m109.6549161,140.4562906c-.4437362,0-.7422006.2907088-.7422006.6656353,0,.3749059.2984643.6657384.7422006.6657384.4438187,0,.7421799-.2908326.7421799-.688675,0-.3672741-.2983612-.6426987-.7421799-.6426987Z"/><rect class="cls-2" x="109.05807" y="142.3614501" width="1.1936717" height="4.1165595"/><polygon class="cls-2" points="114.927009 140.7317152 113.6414879 140.7317152 112.6085992 141.8335374 113.5420066 141.8335374 114.927009 140.7317152"/><path class="cls-2" d="m113.320087,142.3002927c-1.308334,0-2.2647812.8799025-2.2647812,2.1194268,0,1.2395448.9564472,2.1194474,2.2647812,2.1194474,1.3084577,0,2.2572731-.8799025,2.2572731-2.1194474,0-1.2395242-.9488154-2.1194268-2.2572731-2.1194268Zm0,3.2594697c-.5967224,0-1.0558253-.4284314-1.0558253-1.140043,0-.7115909.4591029-1.1400224,1.0558253-1.1400224.5968462,0,1.0483173.4284314,1.0483173,1.1400224,0,.7116116-.4514711,1.140043-1.0483173,1.140043Z"/><path class="cls-2" d="m118.87536,142.3002927c-.5586048,0-1.0406443.1912276-1.361942.5432175v-.4820601h-1.140043v4.1165595h1.1935479v-2.0353535c0-.7574641.4132504-1.109454.9870362-1.109454.5280364,0,.83405.3061167.83405.971752v2.1730555h1.1936511v-2.3566512c0-1.2549115-.7345481-1.8210656-1.7063002-1.8210656Z"/><path class="cls-2" d="m57.7454611,112.6584653c-.5732032,0-.9588699.3750935-.9588699.8595798,0,.4845068.3856667.8596003.9588699.8596003s.9588699-.3750935.9588699-.889009c0-.4743835-.3856667-.8301712-.9588699-.8301712Z"/><polygon class="cls-2" points="64.5554702 113.014253 62.8951483 113.014253 61.5607146 114.4374035 62.7668995 114.4374035 64.5554702 113.014253"/><path class="cls-2" d="m91.4420297,112.6584653c-.5732032,0-.9588699.3750935-.9588699.8595798,0,.4845068.3856667.8596003.9588699.8596003s.9588699-.3750935.9588699-.889009c0-.4743835-.3856667-.8301712-.9588699-.8301712Z"/><path class="cls-2" d="m115.9065869,112.6584653c-.5732032,0-.9588699.3750935-.9588699.8595798,0,.4845068.3856667.8596003.9588699.8596003.5732237,0,.9588699-.3750935.9588699-.889009,0-.4743835-.3856462-.8301712-.9588699-.8301712Z"/><path class="cls-2" d="m133.5013769,112.6584653c-.5732032,0-.9583995.3750935-.9583995.8595798,0,.4845068.3851963.8596003.9583995.8596003.5732237,0,.95842-.3750935.95842-.889009,0-.4743835-.3851963-.8301712-.95842-.8301712Z"/><path class="cls-2" d="m16.1017965,119.3190996l-1.027831-.948767c-.4647306.5437945-1.0480366.8205183-1.7393858.8205183-1.2949018,0-2.2137693-.9092351-2.2137693-2.2137898,0-1.3045342.9188676-2.2137693,2.2137693-2.2137693.6913492,0,1.2746552.2767237,1.7393858.8104154l1.027831-.948767c-.6527375-.7906392-1.6506894-1.2254908-2.8462807-1.2254908-2.1549315,0-3.7555158,1.4920912-3.7555158,3.5776117,0,2.085541,1.6005842,3.5776117,3.7453925,3.5776117,1.2057146,0,2.2036665-.4348311,2.856404-1.2355732Z"/><path class="cls-2" d="m22.328479,117.7773531c0-1.6005638-1.2254703-2.7373377-2.9152213-2.7373377s-2.9253446,1.1367739-2.9253446,2.7373377c0,1.6014841,1.2355936,2.7378081,2.9253446,2.7378081s2.9152213-1.136324,2.9152213-2.7378081Zm-4.2790637,0c0-.9188676.5929794-1.472315,1.3638424-1.472315s1.3541895.5534474,1.3541895,1.472315c0,.9193379-.5833265,1.4727854-1.3541895,1.4727854s-1.3638424-.5534474-1.3638424-1.4727854Z"/><path class="cls-2" d="m23.3576802,115.1190793v5.317018h1.541726v-2.5102693c0-1.0181576.5631004-1.4824383,1.4134977-1.4824383.1185959,0,.2169656.0101233.3456644.0197762v-1.4231506c-.8200479,0-1.4525592.2670708-1.828573.7809863v-.7019224h-1.472315Z"/><path class="cls-2" d="m27.5788265,115.1190793v7.2342874h1.5417465v-2.4808401c.3952992.4348516.9386438.6426347,1.6010137.6426347,1.4925616,0,2.6486209-1.0673629,2.6486209-2.7378081,0-1.6699748-1.1560593-2.7373377-2.6486209-2.7373377-.7115548,0-1.284758.2275388-1.6699748.6917991v-.6127352h-1.4727854Zm2.8757098,1.1859588c.7713129,0,1.3541895.5534474,1.3541895,1.472315,0,.9193379-.5828766,1.4727854-1.3541895,1.4727854-.7704131,0-1.3537396-.5534474-1.3537396-1.4727854,0-.9188676.5833265-1.472315,1.3537396-1.472315Z"/><path class="cls-2" d="m39.8446755,117.7773531c0-1.6005638-1.2254908-2.7373377-2.9156917-2.7373377s-2.9253446,1.1367739-2.9253446,2.7373377c0,1.6014841,1.2351437,2.7378081,2.9253446,2.7378081s2.9156917-1.136324,2.9156917-2.7378081Zm-4.2795341,0c0-.9188676.5929794-1.472315,1.3638424-1.472315s1.3537191.5534474,1.3537191,1.472315c0,.9193379-.5828561,1.4727854-1.3537191,1.4727854s-1.3638424-.5534474-1.3638424-1.4727854Z"/><path class="cls-2" d="m40.8734063,115.1190793v5.317018h1.5417465v-2.5102693c0-1.0181576.5635503-1.4824383,1.4130068-1.4824383.1185959,0,.2178859.0101233.3461347.0197762v-1.4231506c-.8204978,0-1.4530092.2670708-1.8281026.7809863v-.7019224h-1.4727854Z"/><path class="cls-2" d="m44.7180889,118.9044741c0,.9188676.7414543,1.6106871,1.9867009,1.6106871.7805159,0,1.3339634-.256968,1.6207899-.7410044v.6619405h1.4429063v-3.0338377c0-1.611137-.9391141-2.3622443-2.5599041-2.3622443-.849477,0-1.7095068.2275388-2.2928333.6421643l.5534474,1.0774658c.3856667-.3061324.9689727-.4941393,1.5320731-.4941393.8301712,0,1.2254908.3856667,1.2254908,1.0475867h-1.2254908c-1.6207899,0-2.2831803.6522671-2.2831803,1.5913813Zm3.5086711-.6922695v.5437945c-.177904.4840364-.6228585.7212078-1.1367739.7212078-.5433242,0-.8697031-.2564771-.8697031-.6421438,0-.3557876.2275388-.6228585.948767-.6228585h1.05771Z"/><path class="cls-2" d="m53.7818696,116.3050381c.4844864,0,.9092146.2275388,1.1960617.731331l1.1960617-.6426142c-.3856667-.8697031-1.2650227-1.3537396-2.3820205-1.3537396-1.729283,0-2.9648561,1.1367739-2.9648561,2.7373377,0,1.6014841,1.2355732,2.7378081,2.9648561,2.7378081,1.1169977,0,1.9963538-.4941597,2.3820205-1.3440867l-1.1960617-.6522671c-.286847.5139155-.7115753.731331-1.1960617.731331-.7805364,0-1.3932715-.5433242-1.3932715-1.4727854,0-.9285205.6127352-1.472315,1.3932715-1.472315Z"/><rect class="cls-2" x="57.0643721" y="115.1190793" width="1.541726" height="5.317018"/><path class="cls-2" d="m59.6445023,117.7773531c0,1.6014841,1.2355936,2.7378081,2.9253242,2.7378081,1.689751,0,2.9152418-1.136324,2.9152418-2.7378081,0-1.6005638-1.2254908-2.7373377-2.9152418-2.7373377-1.6897306,0-2.9253242,1.1367739-2.9253242,2.7373377Zm2.9253242-1.472315c.770863,0,1.3541895.5534474,1.3541895,1.472315,0,.9193379-.5833265,1.4727854-1.3541895,1.4727854s-1.3638424-.5534474-1.3638424-1.4727854c0-.9188676.5929794-1.472315,1.3638424-1.472315Z"/><path class="cls-2" d="m66.5142694,115.1190793v5.317018h1.541726v-2.6288651c0-.9786256.5336712-1.432783,1.2746552-1.432783.6821666,0,1.0774862.3953196,1.0774862,1.2548994v2.8067487h1.541726v-3.0439405c0-1.6208104-.948767-2.3521414-2.2036665-2.3521414-.7216781,0-1.3440662.2468447-1.7596119.7019224v-.6228585h-1.472315Z"/><path class="cls-2" d="m76.1907853,113.5180451v3.8741117c0,2.0358653,1.1666325,3.1625159,3.1331073,3.1625159,1.9664543,0,3.1331073-1.1266506,3.1331073-3.1625159v-3.8741117h-1.581258v3.8148035c0,1.3142076-.5635707,1.8580021-1.5417465,1.8580021-.9689727,0-1.541726-.5437945-1.541726-1.8580021v-3.8148035h-1.6014841Z"/><path class="cls-2" d="m83.9307055,115.1190793v5.317018h1.541726v-2.6288651c0-.9786256.5336712-1.432783,1.2751256-1.432783.6816962,0,1.0770158.3953196,1.0770158,1.2548994v2.8067487h1.541726v-3.0439405c0-1.6208104-.948767-2.3521414-2.2041164-2.3521414-.7212282,0-1.3440662.2468447-1.7586916.7019224v-.6228585h-1.4727854Z"/><rect class="cls-2" x="90.7609406" y="115.1190793" width="1.541726" height="5.317018"/><polygon class="cls-2" points="96.0094475 118.736223 94.5371325 115.1190793 92.9457512 115.1190793 95.1792968 120.4360973 96.7702076 120.4360973 99.013856 115.1190793 97.5314177 115.1190793 96.0094475 118.736223"/><path class="cls-2" d="m104.7077876,117.7975793c0-1.7099771-1.2061645-2.7575639-2.7672168-2.7575639-1.6207899,0-2.8366278,1.1464269-2.8366278,2.7373377,0,1.581258,1.1956117,2.7378081,3.0342876,2.7378081.95842,0,1.6998538-.2964999,2.1935432-.8596003l-.8200479-.8899088c-.3658905.3461347-.770863.5139155-1.3339634.5139155-.8108653,0-1.3739452-.4049725-1.5224202-1.0673629h4.0225661c.0096529-.1282488.029879-.2960296.029879-.4146254Zm-4.071751-.4844864c.1084726-.6821462.6122852-1.1068949,1.3141872-1.1068949.6917991,0,1.1956117.4348516,1.3045547,1.1068949h-2.6187418Z"/><path class="cls-2" d="m105.7365389,115.1190793v5.317018h1.541726v-2.5102693c0-1.0181576.5635503-1.4824383,1.4130273-1.4824383.1185959,0,.2178859.0101233.3461347.0197762v-1.4231506c-.8205183,0-1.4530296.2670708-1.8281231.7809863v-.7019224h-1.4727649Z"/><path class="cls-2" d="m111.8253197,119.3489582c-.6527375,0-1.3739452-.2072923-1.8483288-.513895l-.5139155,1.1068744c.4941393.3259086,1.4033744.5732237,2.3024862.5732237,1.5913813,0,2.5107192-.7014724,2.5107192-1.689751,0-2.0951734-3.2121712-1.2158379-3.2121712-2.1250525,0-.2767237.2964795-.4941597.9882786-.4941597.4845068,0,1.0080752.0988401,1.5316232.3953196l.5139155-1.0967716c-.5037922-.2969499-1.3141872-.4647306-2.0455386-.4647306-1.5518288,0-2.4610639.7115753-2.4610639,1.7196301,0,2.1246026,3.2121712,1.2355936,3.2121712,2.1052967,0,.2960296-.2666004.484016-.9781757.484016Z"/><rect class="cls-2" x="115.2254978" y="115.1190793" width="1.541726" height="5.317018"/><path class="cls-2" d="m121.6300844,120.1791293l-.4146254-1.0871187c-.1682307.1287192-.3953196.1976598-.6228585.1976598-.4150754,0-.66237-.2472946-.66237-.701452v-2.1645845h1.3247604v-1.1859588h-1.3247604v-1.2948813h-1.5417465v1.2948813h-.8200479v1.1859588h.8200479v2.1838903c0,1.2650023.7318014,1.9076369,1.9867009,1.9076369.4743835,0,.9386438-.108493,1.2548994-.3360319Z"/><path class="cls-2" d="m122.155023,118.9044741c0,.9188676.740984,1.6106871,1.9862305,1.6106871.7809863,0,1.3344337-.256968,1.6208104-.7410044v.6619405h1.4429063v-3.0338377c0-1.611137-.9386642-2.3622443-2.5594541-2.3622443-.8503768,0-1.7099771.2275388-2.2928333.6421643l.5534474,1.0774658c.3851963-.3061324.9680524-.4941393,1.5316232-.4941393.8301507,0,1.2254703.3856667,1.2254703,1.0475867h-1.2254703c-1.6208104,0-2.2827304.6522671-2.2827304,1.5913813Zm3.5082007-.6922695v.5437945c-.1778836.4840364-.6223881.7212078-1.1363036.7212078-.5437945,0-.8696827-.2564771-.8696827-.6421438,0-.3557876.2270685-.6228585.9487466-.6228585h1.0572396Z"/><path class="cls-2" d="m130.0723769,115.8210017v-.7019224h-1.4727854v5.317018h1.5417465v-2.5102693c0-1.0181576.5635503-1.4824383,1.4130273-1.4824383.1185959,0,.2178859.0101233.3461347.0197762v-1.4231506c-.8205183,0-1.4530296.2670708-1.8281231.7809863Z"/><rect class="cls-2" x="132.8202878" y="115.1190793" width="1.5417465" height="5.317018"/><path class="cls-2" d="m135.4496029,118.9044741c0,.9188676.7414543,1.6106871,1.9867009,1.6106871.7805159,0,1.3339634-.256968,1.6207899-.7410044v.6619405h1.4429063v-3.0338377c0-1.611137-.9391141-2.3622443-2.5599041-2.3622443-.849477,0-1.7095068.2275388-2.2928333.6421643l.5534474,1.0774658c.3856667-.3061324.9689727-.4941393,1.5320731-.4941393.8301712,0,1.2254908.3856667,1.2254908,1.0475867h-1.2254908c-1.6207899,0-2.2831803.6522671-2.2831803,1.5913813Zm3.5086711-.6922695v.5437945c-.177904.4840364-.6228585.7212078-1.1367739.7212078-.5433242,0-.8697031-.2564771-.8697031-.6421438,0-.3557876.2275388-.6228585.948767-.6228585h1.05771Z"/><path class="cls-2" d="m21.1715993,128.9835729c0-3.0183005-2.2491676-4.8838253-5.8451798-4.8838253h-5.8264195v13.4593323h3.1157557v-3.7489274h2.8644821l2.5961723,3.7489274h3.3447181l-3.0183005-4.3266597c1.7501713-.7494283,2.7687715-2.2304073,2.7687715-4.2488474Zm-6.0177996,2.3457608h-2.538044v-4.6915421h2.538044c1.9030866,0,2.8644821.865685,2.8644821,2.3457813,0,1.461295-.9613955,2.3457608-2.8644821,2.3457608Z"/><path class="cls-2" d="m29.6720034,136.2712874v1.2877926h2.8072364v-5.9024255c0-3.1345571-1.8270805-4.5958521-4.980398-4.5958521-1.6526956,0-3.3259372.4426742-4.4608146,1.2493483l1.076749,2.0962524c.7503315-.59561,1.8851883-.961375,2.9807182-.961375,1.6151338,0,2.3842256.7503315,2.3842256,2.0381241h-2.3842256c-3.1533174,0-4.4420132,1.2690323-4.4420132,3.0960923,0,1.7877331,1.4425141,3.133654,3.8651841,3.133654,1.5185407,0,2.5952897-.4999199,3.153338-1.441611Zm-4.0959321-1.8270805c0-.6921826.4426742-1.2117865,1.8458614-1.2117865h2.0577875v1.0579682c-.346081.9417116-1.2117865,1.4031666-2.2116264,1.4031666-1.0570651,0-1.6920225-.4990168-1.6920225-1.2493483Z"/><path class="cls-2" d="m35.5583369,137.55908h2.9994991v-7.8064152h2.5756263v-2.3073165h-2.6525354v-.4426742c0-1.0186207.4802565-1.4988567,1.3647223-1.4988567.4614551,0,.8844658.1341344,1.2108834.3648824l.7887963-2.1731821c-.5580483-.3845459-1.4416315-.5571451-2.287653-.5571451-2.5773915,0-3.999339,1.5194233-3.999339,3.8455206v.4614551h-1.5963324v2.3073165h1.5963324v7.8064152Z"/><path class="cls-2" d="m51.5950606,137.55908v-5.9024255c0-3.1345571-1.8261774-4.5958521-4.9794948-4.5958521-1.6544813,0-3.3268403.4426742-4.4608146,1.2493483l1.076749,2.0962524c.7494283-.59561,1.8834026-.961375,2.9798356-.961375,1.6151133,0,2.3842256.7503315,2.3842256,2.0381241h-2.3842256c-3.153338,0-4.4411306,1.2690323-4.4411306,3.0960923,0,1.7877331,1.441611,3.133654,3.8643015,3.133654,1.5194233,0,2.5961723-.4999199,3.1533174-1.441611v1.2877926h2.8072364Zm-2.9994991-3.2686915c-.3461016.9417116-1.2109039,1.4031666-2.2107438,1.4031666-1.0579477,0-1.6920225-.4990168-1.6920225-1.2493483,0-.6921826.4417916-1.2117865,1.8458614-1.2117865h2.0569049v1.0579682Z"/><path class="cls-2" d="m63.8256113,136.0405393l-1.5954498-1.7313699c-.7118666.6734223-1.4997393.9998399-2.5952692.9998399-1.5775721,0-2.6730815-.7878932-2.9619579-2.0765889h7.8260992c.0187809-.2495084.0581283-.575926.0581283-.8066741,0-3.3268198-2.3466639-5.3649439-5.3837452-5.3649439-3.1533174,0-5.5187622,2.2304073-5.5187622,5.3255964,0,3.0764288,2.3260973,5.3264995,5.9033286,5.3264995,1.8646217,0,3.3071358-.5768291,4.2676282-1.672359Zm-4.6334138-6.7108853c1.3459414,0,2.3260973.8460215,2.538044,2.1534981h-5.0948689c.2110641-1.3271401,1.19122-2.1534981,2.5568249-2.1534981Z"/><rect class="cls-2" x="66.5586274" y="123.292191" width="2.9994991" height="14.266889"/><polygon class="cls-2" points="78.0004022 124.0997476 78.0004022 137.55908 81.0768105 137.55908 81.0768105 129.3868997 87.7876958 137.55908 90.3454238 137.55908 90.3454238 124.0997476 87.268995 124.0997476 87.268995 132.2719279 80.5777937 124.0997476 78.0004022 124.0997476"/><polygon class="cls-2" points="99.0962189 125.8883633 102.5759744 123.1195918 99.3457273 123.1195918 96.7504581 125.8883633 99.0962189 125.8883633"/><path class="cls-2" d="m103.7492961,137.55908v-10.3444592h-2.9994991v5.1145529c0,1.9030866-.9998399,2.7884555-2.3842256,2.7884555-1.3271606,0-2.0962524-.7691123-2.0962524-2.5004823v-5.4025261h-2.9995196v5.8452003c0,3.1917823,1.8270805,4.6530772,4.4232528,4.6530772,1.2681291,0,2.4217874-.4811391,3.2105632-1.3843858v1.2305674h2.8456807Z"/><path class="cls-2" d="m109.6731913,125.8114541c.039368-.6922031.4042299-1.076749.9229307-1.076749.6922031,0,1.3656049,1.2109039,2.6918624,1.2109039,1.3468446,0,2.2116264-1.096433,2.2500913-2.7491081h-1.5185407c-.0393475.6340543-.4042299,1.0374016-.9229307,1.0374016-.6921826,0-1.3656049-1.2305674-2.6918624-1.2305674-1.346824,0-2.2116264,1.0964125-2.2500707,2.808119h1.5185201Z"/><path class="cls-2" d="m112.8265293,127.0608024c-1.4031666,0-2.6149532.4802359-3.4216272,1.3656049v-1.2117865h-2.8653647v10.3444592h2.9995196v-5.1145529c0-1.9039692,1.0382842-2.7875524,2.4807983-2.7875524,1.326278,0,2.0953698.7691123,2.0953698,2.4414714v5.4606339h2.9995196v-5.9221095c0-3.1533174-1.8458614-4.5761681-4.2882153-4.5761681Z"/><path class="cls-2" d="m124.6921975,127.0608024c-3.1533174,0-5.5178796,2.2304073-5.5178796,5.3255964,0,3.0764288,2.3270004,5.3264995,5.902446,5.3264995,1.8655248,0,3.3071563-.5768291,4.2694139-1.672359l-1.5963324-1.7313699c-.710984.6734223-1.4997598.9998399-2.5961723.9998399-1.5757659,0-2.6721989-.7878932-2.9601516-2.0765889h7.8251756c.019684-.2495084.0572457-.575926.0572457-.8066741,0-3.3268198-2.3448782-5.3649439-5.3837452-5.3649439Zm-2.538044,4.4223497c.2119672-1.3271401,1.1930057-2.1534981,2.557728-2.1534981,1.3459414,0,2.3269799.8460215,2.538044,2.1534981h-5.095772Z"/><polygon class="cls-2" points="140.3274008 129.0220173 140.3274008 127.2146207 131.4057717 127.2146207 131.4057717 129.5219372 136.539988 129.5219372 131.2707342 135.7516834 131.2707342 137.55908 140.5 137.55908 140.5 135.2517635 135.0590296 135.2517635 140.3274008 129.0220173"/><path class="cls-3" d="m17.3790581,70.5528712v-37.2620856c0-3.4903825,2.829512-6.3198945,6.3198739-6.3198945h7.9677188c3.4903619,0,6.3198739,2.829512,6.3198739,6.3198945v38.4452997c0,1.9025399.3058898,3.5924421.9250538,5.0342084l20.767177-30.3906405v-13.0888675c0-1.1596381.3176263-2.2427934.862762-3.1770053,1.0091683-1.8710228,2.9863965-3.1428892,5.2613053-3.1428892h7.1387429L90.021357,1.9763495H17.0587917c-4.1725602,0-7.5550872,3.382527-7.5550872,7.5550872v91.6631398c0,4.1725602,3.382527,7.5550666,7.5550872,7.5550666l10.5833554-15.4876585c-6.8807063-4.800676-10.2630889-12.5834789-10.2630889-22.7091134Z"/><path class="cls-1" d="m49.1286086,82.2862527c7.0005046,0,10.5501468-4.5359565,10.5501468-10.9445653v-24.9620343l-20.767177,30.3906405c1.4985921,3.4895781,4.8443834,5.5159591,10.2170301,5.5159591Z"/><path class="cls-1" d="m90.021357,1.9763495l-17.0797914,24.9945416h4.0586405c2.1269967,0,4.0936023,1.1307817,5.1636185,2.9690291l21.344428,36.6689109h.1972092v-33.6632287c0-3.2997325,2.6749582-5.9747113,5.9746907-5.9747113h7.9680282c3.2997325,0,5.9746907,2.6749788,5.9746907,5.9747113v58.5502035c0,3.2997325-2.6749582,5.9747113-5.9746907,5.9747113h-11.8227352c-2.1617728,0-4.154904-1.1677236-5.2118637-3.0534737l-20.3270504-36.2661594v12.401987c0,17.3537928-10.3532676,28.1995988-31.4535819,28.1995988-9.0371369,0-16.0781105-1.9233726-21.1908024-5.4904855l-10.5833554,15.4876585h115.8824373c4.1725602,0,7.5550666-3.3825064,7.5550666-7.5550666v-48.7432679c0-27.8765478-22.5983907-50.4749591-50.4749385-50.4749591Z"/><path class="cls-5" d="m79.7452322,57.5375369v17.525384c0,3.2997325-2.6749582,5.9746907-5.9746907,5.9746907h-7.9769594c-3.2946378,0-5.9654501-2.6708123-5.9654501-5.9654295v-42.1265797c0-1.0248238.2587585-1.988944.7133854-2.8318221-.5451357.9342119-.862762,2.0173672-.862762,3.1770053v38.0509018c0,6.4086088-3.5496423,10.9445653-10.5501468,10.9445653-5.3726467,0-8.718438-2.026381-10.2170301-5.5159591-.6191639-1.4417663-.9250538-3.1316684-.9250538-5.0342084v-38.4452997c0-3.4903825-2.829512-6.3198945-6.3198739-6.3198945h-7.9677188c-3.4903619,0-6.3198739,2.829512-6.3198739,6.3198945v37.2620856c0,10.1256344,3.3823826,17.9084373,10.2630889,22.7091134,5.1126919,3.5671128,12.1536655,5.4904855,21.1908024,5.4904855,21.1003143,0,31.4535819-10.845806,31.4535819-28.1995988v-12.401987l-.3437806-.6133473h-.1975186Z"/><path class="cls-4" d="m65.8028227,26.9708911c-2.2749087,0-4.2521369,1.2718664-5.2613053,3.1428892-.454627.8428781-.7133854,1.8069983-.7133854,2.8318221v42.1265797c0,3.2946172,2.6708123,5.9654295,5.9654501,5.9654295h7.9769594c3.2997325,0,5.9746907-2.6749582,5.9746907-5.9746907v-17.525384h.1975186l.3437806.6133473,20.3270504,36.2661594c1.0569598,1.88575,3.0500909,3.0534737,5.2118637,3.0534737h11.8227352c3.2997325,0,5.9746907-2.6749788,5.9746907-5.9747113v-58.5502035c0-3.2997325-2.6749582-5.9747113-5.9746907-5.9747113h-7.9680282c-3.2997325,0-5.9746907,2.6749788-5.9746907,5.9747113v33.6632287h-.1972092l-21.344428-36.6689109c-1.0700163-1.8382474-3.0366219-2.9690291-5.1636185-2.9690291h-11.1973833Z"/></svg>